<?xml version="1.0" encoding="utf-8"?>
<!-- Generator: Adobe Illustrator 27.5.0, SVG Export Plug-In . SVG Version: 6.00 Build 0)  -->
<svg version="1.1" id="レイヤー_1" xmlns="http://www.w3.org/2000/svg" xmlns:xlink="http://www.w3.org/1999/xlink" x="0px"
	 y="0px" viewBox="0 0 235.1 82.8" style="enable-background:new 0 0 235.1 82.8;" xml:space="preserve">
<style type="text/css">
	.st0{fill:#C8004C;}
	.st1{fill:#F49C00;}
</style>
<g>
	<g>
		<path class="st0" d="M203.1,17.9c0,2-1.6,3.7-3.7,3.7c-2,0-3.7-1.6-3.7-3.7c0-2,1.6-3.7,3.7-3.7C201.4,14.2,203.1,15.8,203.1,17.9
			z"/>
		<circle class="st0" cx="75.8" cy="17.9" r="3.7"/>
		<path class="st0" d="M107.6,16.3c-0.3-0.6-0.7-1.1-1.1-1.4c-0.4-0.3-0.9-0.6-1.5-0.7c-0.6-0.1-0.8-0.1-1.5-0.1l-1.9,0l-1.5,12.4
			c-0.4-0.4-0.9-0.8-1.4-1.3c-0.5-0.3-1.1-0.6-1.8-0.9c-0.7-0.3-1.5-0.5-2.5-0.6c-1.5-0.1-3,0.1-4.6,0.5c-1.6,0.5-3,1.3-4.4,2.4
			c-1.4,1.1-2.5,2.6-3.5,4.4c-1,1.8-1.7,4-2,6.5c-0.2,1.9-0.1,3.7,0.3,5.3c0.5,1.6,1.2,3.1,2.2,4.3c1,1.3,2.1,2.4,3.6,3.1
			c0,0,0.4,0.3,1.2,0.6c1.3,0.3,2.6,0.5,4,0.5c1.7-0.1,3.1-0.4,4.2-1c1.1-0.6,1.8-1.1,2.4-1.7l0,0c0,0,0,0.1,0,0.1
			c0.3,0.6,0.7,1.1,1.1,1.4c0.4,0.3,0.9,0.5,1.5,0.7c0.6,0.1,0.8,0.1,1.5,0.1h1.9l1.6-12.7c0-0.2,0.1-0.4,0.1-0.6l2.3-18.9
			C108,17.5,107.8,16.9,107.6,16.3z M98.6,37c-0.1,1.8-0.3,3.3-0.8,4.5c-0.5,1.2-1,2.1-1.7,2.8c-0.6,0.7-1.3,1.2-2,1.5
			c-0.7,0.3-1.3,0.4-1.8,0.5c-0.5,0-1.1,0-1.8-0.2c-0.7-0.2-1.3-0.5-1.9-1.1c-0.6-0.6-1.1-1.4-1.4-2.6c-0.4-1.1-0.6-2.6-0.5-4.4
			c0.1-1.8,0.3-3.3,0.8-4.5c0.5-1.2,1-2.1,1.7-2.8c0.6-0.7,1.3-1.2,2-1.4c0.7-0.3,1.3-0.4,1.8-0.5c0.5,0,1.1,0,1.8,0.2
			c0.7,0.2,1.3,0.5,1.9,1.1c0.6,0.6,1.1,1.4,1.5,2.5C98.6,33.7,98.7,35.2,98.6,37z"/>
		<g>
			<path class="st0" d="M76.6,24.6c-0.4-0.3-0.9-0.5-1.5-0.7c-0.6-0.1-0.8-0.1-1.5-0.1h-1.9L69,46.4c-0.1,0.9-0.1,1.3,0.1,1.8
				c0.2,0.6,0.5,1.2,0.9,1.6c0.4,0.4,1,0.8,1.5,0.9c0.6,0.1,1,0.2,1.7,0.2h2l2.8-22.6c0.2-1.1,0-1.7-0.2-2.3
				C77.4,25.4,77,24.9,76.6,24.6z"/>
		</g>
		<path class="st0" d="M139.2,14.5c0-0.1-0.1-0.3-0.1-0.3l-21.2,0c-1.1,0-2.7,0-2.8,0h0c-1,0-1.6,0.2-2.1,0.5
			c-0.5,0.3-1,0.7-1.2,1.2c-0.2,0.4-0.4,0.9-0.5,1.4c-0.1,0.5-0.3,2.5-0.4,2.7c0,0,20.2,0,20.2,0c-2.2,2.1-4.6,4.6-6.7,6.5
			c-1.1,1-2.2,2.1-3.3,3.2c-1.1,1.1-2.2,2.2-3.3,3.2c-1.1,1.1-2.1,2.1-3.1,3c-1,1-1.9,1.8-2.7,2.6c-1.2,1.2-2.4,2.7-3.2,4.1
			c-0.9,1.8-1.4,3.9-1.5,5.9c0,0.8,0,1.6,0.1,2.3c0,0,24.3,0,24.4,0c0.9,0,1.4-0.2,1.8-0.5c0.5-0.3,1-0.7,1.2-1.2
			c0.2-0.4,0.4-0.9,0.5-1.4c0.1-0.5,0.1-0.7,0.2-1.4c0-0.4,0.2-1.2,0.2-1.6h-21.6c2.1-2,4.4-4.1,6.4-6.1c1.1-1,2.2-2.1,3.3-3.2
			c1.1-1.1,2.2-2.2,3.3-3.2c1.1-1.1,2-2,3-2.9c1-1,1.9-1.9,2.7-2.6c1.6-1.5,3-3,3.9-4.3c0.9-1.2,1.4-2.2,1.8-3.1
			c0.4-1,0.6-1.8,0.7-2.6C139.4,16,139.4,15.2,139.2,14.5z"/>
		<g>
			<path class="st0" d="M200.1,24.6c-0.4-0.3-0.9-0.5-1.5-0.7c-0.6-0.1-0.8-0.1-1.5-0.1h-1.9l-2.8,22.5c-0.1,0.9-0.1,1.3,0.1,1.8
				c0.2,0.6,0.5,1.2,0.9,1.6c0.4,0.4,1,0.8,1.5,0.9c0.6,0.1,1,0.2,1.7,0.2h2l2.8-22.6c0.2-1.1,0-1.7-0.2-2.3
				C200.9,25.4,200.5,24.9,200.1,24.6z"/>
		</g>
		<path class="st0" d="M190,31.1c-0.6-1.8-1.4-3.3-2.5-4.4c-1.1-1.1-2.4-1.9-3.8-2.4c-1.5-0.5-3-0.7-4.5-0.5
			c-0.8,0.1-1.6,0.2-2.3,0.5c-0.7,0.3-1.4,0.6-2,0.9c-0.6,0.3-1.1,0.6-1.5,0.9c-0.4,0.3-0.7,0.5-0.9,0.7c0-0.1,0-0.1,0-0.2
			c0-0.2,0-0.3-0.1-0.4c0-0.1-0.1-0.2-0.1-0.3c-0.3-0.6-0.7-1.1-1.1-1.4c-0.4-0.3-0.9-0.6-1.5-0.7c-0.5-0.1-1.3-0.1-1.3-0.1h-2
			c0,0-2.8,22.6-2.8,22.6c-0.2,1.1,0,1.7,0.2,2.3c0.3,0.6,0.7,1.1,1.1,1.4c0.4,0.3,0.9,0.6,1.5,0.7c0.5,0.1,0.8,0.1,1.3,0.1
			c0,0,0,0,0,0h2l1.7-13.6c0.2-1.6,0.6-3,1.1-4.1c0.5-1.1,1.1-2,1.8-2.6c0.7-0.6,1.4-1.1,2.3-1.4c0.8-0.3,1.6-0.4,2.4-0.3
			c0.8,0,1.5,0.2,2.2,0.5c0.6,0.3,1.2,0.8,1.6,1.5c0.4,0.7,0.7,1.6,0.9,2.8c0.1,1.2,0.1,2.6-0.1,4.4l-1,8.5c0,0,0,0,0,0l0,0
			c-0.2,1.1,0,1.8,0.2,2.3c0.3,0.6,0.7,1.1,1.1,1.4c0.4,0.3,0.9,0.6,1.5,0.7c0.5,0.1,0.8,0.1,1.3,0.1c0,0,0,0,0,0h2l1.6-13.3
			C190.7,35.1,190.6,32.9,190,31.1z"/>
		<path class="st0" d="M161.5,28.3c-0.6-1.5-1.5-2.6-2.5-3.3c-1-0.6-2.3-1.2-3.5-1.3c-1.3-0.3-3.3-0.5-5.5-0.5
			c-3.2,0-5.8,0.4-6.7,0.9c-0.1,0.1-0.2,0.1-0.3,0.2c-0.5,0.3-1,0.7-1.2,1.2c-0.2,0.4-0.4,0.9-0.5,1.4c-0.1,0.5-0.1,0.7-0.2,1.4
			c0,0.5-0.1,0.9-0.1,0.9l0.1,0c1.3-0.3,3.5-0.5,5.9-0.5c2.6,0,4.9,0.2,6.2,0.6c0.9,0.2,1.7,0.6,2.1,1.3c0,0,0.6,0.9,0.6,2.3
			c0,0.7-0.1,1.4-0.3,2.2c-5.2-0.8-9.4-0.7-12.6,0.5c-3.2,1.2-5,3.4-5.5,6.8c-0.2,1.6-0.1,3,0.3,4.1c0.4,1.2,1.1,2.1,2.1,2.9
			c0.9,0.8,2,1.3,3.3,1.7c1.3,0.3,2.6,0.5,4.1,0.5c1.7-0.1,3.1-0.4,4.2-1c1.1-0.6,1.9-1.2,2.4-1.7c0,0,0.1,0,0.1-0.1
			c0,0,0.1,0.1,0.1,0.2c0.3,0.6,0.7,1.1,1.1,1.4c0.4,0.3,0.9,0.6,1.5,0.7c0.6,0.1,0.8,0.1,1.5,0.1l1.9,0l2-16.1
			C162.2,32,162.1,29.8,161.5,28.3z M154.2,42.7c-0.4,0.9-1,1.7-1.6,2.2c-0.7,0.5-1.4,0.9-2.2,1.1c-0.8,0.2-1.6,0.3-2.4,0.3
			c-0.6,0-1.3-0.1-1.8-0.2c-0.6-0.1-1.1-0.3-1.5-0.6c-0.4-0.3-0.7-0.7-0.9-1.2c-0.2-0.5-0.2-1.1-0.1-1.9c0.1-0.8,0.3-1.4,0.7-1.9
			c0.4-0.5,0.8-0.9,1.3-1.2c0.5-0.3,1.1-0.6,1.6-0.7c0.6-0.1,1.1-0.2,1.7-0.3c0.9,0,1.7,0,2.4,0.1c0.8,0.1,1.4,0.2,1.9,0.2
			c0.6,0.1,1.2,0.2,1.7,0.4C154.9,40.6,154.6,41.8,154.2,42.7z"/>
		<path class="st0" d="M226.9,28.3c-0.6-1.5-1.5-2.6-2.5-3.3c-1-0.6-2.3-1.2-3.5-1.3c-1.3-0.3-3.3-0.5-5.5-0.5
			c-3.2,0-5.8,0.4-6.7,0.9c-0.1,0.1-0.2,0.1-0.3,0.2c-0.5,0.3-1,0.7-1.2,1.2c-0.2,0.4-0.4,0.9-0.5,1.4c-0.1,0.5-0.1,0.7-0.2,1.4
			c0,0.5-0.1,0.9-0.1,0.9l0.1,0c1.3-0.3,3.5-0.5,5.9-0.5c2.6,0,4.9,0.2,6.2,0.6c0.9,0.2,1.7,0.6,2.1,1.3c0,0,0.6,0.9,0.6,2.3
			c0,0.7-0.1,1.4-0.3,2.2c-5.2-0.8-9.4-0.7-12.6,0.5c-3.2,1.2-5,3.4-5.5,6.8c-0.2,1.6-0.1,3,0.3,4.1c0.4,1.2,1.1,2.1,2.1,2.9
			c0.9,0.8,2,1.3,3.3,1.7c1.3,0.3,2.6,0.5,4.1,0.5c1.7-0.1,3.1-0.4,4.2-1c1.1-0.6,1.9-1.2,2.4-1.7c0,0,0.1,0,0.1-0.1
			c0,0,0.1,0.1,0.1,0.2c0.3,0.6,0.7,1.1,1.1,1.4c0.4,0.3,0.9,0.6,1.5,0.7c0.6,0.1,0.8,0.1,1.5,0.1l1.9,0l2-16.1
			C227.7,32,227.5,29.8,226.9,28.3z M219.7,42.7c-0.4,0.9-1,1.7-1.6,2.2c-0.7,0.5-1.4,0.9-2.2,1.1c-0.8,0.2-1.6,0.3-2.4,0.3
			c-0.6,0-1.3-0.1-1.8-0.2c-0.6-0.1-1.1-0.3-1.5-0.6c-0.4-0.3-0.7-0.7-0.9-1.2c-0.2-0.5-0.2-1.1-0.1-1.9c0.1-0.8,0.3-1.4,0.7-1.9
			c0.4-0.5,0.8-0.9,1.3-1.2c0.5-0.3,1.1-0.6,1.6-0.7c0.6-0.1,1.1-0.2,1.7-0.3c0.9,0,1.7,0,2.4,0.1c0.8,0.1,1.4,0.2,1.9,0.2
			c0.6,0.1,1.2,0.2,1.7,0.4C220.4,40.6,220.1,41.8,219.7,42.7z"/>
		<g>
			<g>
				<path class="st0" d="M24.5,51L29,14.2l2,0c0.2,0,0.3,0,0.5,0c0.1,0,0.2,0,0.3,0c0.3,0,0.6,0,1,0.1c0.7,0.1,1.2,0.4,1.7,0.8
					c0.5,0.4,1,1,1.3,1.6c0.3,0.7,0.4,1.9,0.2,3.2l-1.1,9.2l14.2-14.2c-0.2,0-0.3-0.1-0.3-0.1c-1.9-0.4-3.5-0.9-4.5-1.3
					c-1.7-0.7-2.8-1.3-3.8-1.9c-0.8-0.5-1.5-1-2.5-1.4c-0.9-0.4-2.1-1-3.4-1.4c-2.2-0.7-4.8-1.2-7.4-1.2c-2.5,0-4.5,0.3-6.4,0.8
					c-1.8,0.5-3.2,1-4.8,1.8c0,0-1.6,0.8-3.5,2.1L7.6,51.2c-0.2,1.4,0.9,2.1,1.9,1.9c0.2,0,0.5-0.2,0.8-0.3c1-0.4,1.9-0.8,2.8-1
					c3.5-1.1,7.2-1.3,10.9-0.8C24.2,51,24.3,51,24.5,51z"/>
			</g>
		</g>
		<path class="st1" d="M68.6,10.8c-0.5,0-0.8,0.1-1.1,0.3c-0.7,0.5-1.4,0.9-2,1.2c-1.1,0.6-1.9,0.9-1.9,0.9
			c-0.5,0.2-0.9,0.4-1.3,0.5c-0.6,0.2-1.2,0.4-1.7,0.6L42.2,32.7c0.2,0.1,0.3,0.2,0.4,0.3l16,16c-0.8,0.9-1.7,1.5-1.7,1.5
			c-1,0.6-2,0.9-3.1,0.9c-4.3,0-8.2-4.3-8.2-4.3l-9.2-9.2l-2.3-2.3l-2.2,18c0.3,0.1,0.5,0.2,0.5,0.2c0.1,0,1,0.6,1,0.6
			c0.2,0.1,1.3,0.7,1.3,0.7c0.4,0.2,0.8,0.3,1.2,0.5c0.8,0.3,1.5,0.5,2.2,0.8c0.9,0.3,1.8,0.5,2.8,0.7c0,0,0.3,0.1,1,0.1
			c0.8,0.1,1.7,0.2,2.9,0.2c0.5,0,1.1,0,1.8,0c0.5,0,1.1-0.1,1.7-0.2c0.5-0.1,1-0.1,1.5-0.2c0.3-0.1,0.7-0.1,1-0.2
			c1.1-0.3,2.2-0.6,3.4-1.1c0.5-0.2,1.2-0.5,1.6-0.7c0.5-0.3,1.1-0.6,1.7-0.9c0.2-0.1,1.1-0.7,2.2-1.4c0.9-0.6,1.7-1.4,2.5-2
			c0.5-0.5,1.3-1.3,2.4-2.6c0.1-0.2,1-1.4,1.3-1.8L70,12.4c0-0.3-0.1-0.7-0.4-1.1C69.4,11.1,69,10.8,68.6,10.8z"/>
	</g>
	<g>
		<path class="st0" d="M106.8,62.1c0.1,0.2,0.1,0.4,0.1,0.6c0,0.1,0,0.2,0,0.3c0,0,0,0.2-0.1,0.6l-0.3,2.6l-0.4,3.1
			c-0.1,1-0.2,1.6-0.3,1.9c-0.1,0.5-0.2,1.1-0.3,1.6c-0.2,0.6-0.5,1.1-0.9,1.6c-0.4,0.5-0.9,0.8-1.5,0.9c-0.6,0.1-1.2,0.2-1.8,0.2
			c-0.1,0-0.1,0-0.2,0c-1.4,0-2.2-0.1-2.6-0.3l-0.1-0.1c-0.2-0.1-0.3-0.3-0.5-0.5c-0.1-0.2-0.2-0.4-0.2-0.6c0-0.2-0.1-0.3-0.1-0.5
			l0-0.3h0.1c0.7,0.1,1.4,0.2,2.1,0.2c0.1,0,0.1,0,0.2,0c0.1,0,0.3,0,0.5,0c0.2,0,0.4,0,0.5,0c0.1,0,0.2,0,0.3,0c0.1,0,0.3,0,0.3,0
			c0.1,0,0.2,0,0.3-0.1c0.2,0,0.3-0.1,0.5-0.2c0.1-0.1,0.2-0.2,0.3-0.4c0.1-0.2,0.2-0.3,0.2-0.4c0-0.1,0.1-0.3,0.2-0.5
			c0.1-0.6,0.2-1.1,0.3-1.7l0.1-0.9l1-7.9h0.8c0,0,0.1,0,0.1,0c0.1,0,0.3,0,0.4,0c0.2,0,0.4,0.1,0.6,0.3
			C106.6,61.7,106.7,61.9,106.8,62.1z"/>
		<path class="st0" d="M115.1,75.3c-0.7,0-1.2-0.3-1.4-0.9c-0.4,0.4-0.7,0.6-0.9,0.7c-0.5,0.2-1.1,0.4-1.7,0.4
			c-1.1,0-1.9-0.3-2.6-0.9c-0.6-0.5-0.9-1.2-0.9-2.1c0-0.2,0-0.4,0.1-0.5c0-0.5,0.3-1.1,0.7-1.6c0.4-0.5,0.9-0.8,1.4-1
			c1.2-0.4,2.8-0.5,4.7-0.2c0.1-0.3,0.1-0.5,0.1-0.8c0-0.3-0.1-0.6-0.3-0.9c-0.1-0.1-0.2-0.2-0.3-0.3c-0.1-0.1-0.3-0.2-0.4-0.2
			c-0.7-0.2-1.4-0.2-2.1-0.2c-0.1,0-0.1,0-0.2,0c0,0-0.1,0-0.1,0c-0.7,0-1.4,0.1-2.1,0.2h-0.1c0-0.7,0.1-1.1,0.3-1.4
			c0.1-0.2,0.3-0.4,0.6-0.5c0.4-0.2,1.2-0.3,2.5-0.3c0.1,0,0.1,0,0.2,0c1.4,0,2.4,0.2,3.2,0.7c0.2,0.1,0.4,0.3,0.5,0.6
			c0.2,0.2,0.3,0.5,0.4,0.7c0.2,0.6,0.3,1.4,0.1,2.4l-0.7,6h-0.7C115.2,75.3,115.2,75.3,115.1,75.3z M109.8,72.4
			c0,0.8,0.5,1.2,1.6,1.2c1.1,0,1.9-0.5,2.3-1.4c0.2-0.4,0.3-0.9,0.3-1.3c-0.6-0.2-1.3-0.3-2-0.3c-1,0-1.6,0.3-2,0.8
			C110,71.7,109.8,72,109.8,72.4z"/>
		<path class="st0" d="M121.1,65.6c0.3-0.2,0.7-0.3,1.2-0.5c0.5-0.1,0.9-0.2,1.3-0.2c0,0,0,0,0,0c0,0,0,0,0.1,0
			c0.7,0,1.3,0.1,1.8,0.4c0.6,0.3,1,0.7,1.4,1.1c0.7,0.9,1,1.9,1,3c0,0.9-0.2,1.9-0.7,2.8c-0.3,0.6-0.7,1.2-1.2,1.7
			c-0.5,0.5-1.1,0.9-1.7,1.1c-0.3,0.1-0.6,0.2-1,0.3c-0.4,0.1-0.7,0.1-1,0.1c0,0,0,0,0,0c0,0,0,0,0,0c-0.3,0-0.7-0.1-1.1-0.2
			c-0.4-0.1-0.7-0.2-1-0.4l-0.5,4.3H119c0,0-0.1,0-0.1,0c-0.5,0-0.8-0.1-1.1-0.4c-0.3-0.3-0.4-0.6-0.4-1c0-0.1,0-0.2,0-0.3v0
			c0-0.1,0-0.2,0-0.3l1.5-12.2h0.7c0,0,0.1,0,0.1,0C120.4,64.9,120.9,65.1,121.1,65.6z M124.7,72.1c0.5-0.9,0.8-1.9,0.8-2.9
			c0-0.7-0.1-1.2-0.4-1.6c-0.3-0.4-0.7-0.7-1.3-0.7c0,0-0.1,0-0.1,0c-0.6,0-1,0.2-1.5,0.5c-0.3,0.3-0.6,0.7-0.9,1.2
			c-0.2,0.5-0.4,1-0.5,1.5c-0.1,0.4-0.2,0.8-0.2,1.3c0,0.7,0.1,1.2,0.4,1.6c0.3,0.4,0.7,0.7,1.3,0.7c0,0,0.1,0,0.1,0
			c0.5,0,1-0.2,1.4-0.5C124.2,72.8,124.5,72.5,124.7,72.1z"/>
		<path class="st0" d="M136.3,75.3c-0.7,0-1.2-0.3-1.4-0.9c-0.4,0.4-0.7,0.6-0.9,0.7c-0.5,0.2-1.1,0.4-1.7,0.4
			c-1.1,0-1.9-0.3-2.6-0.9c-0.6-0.5-0.9-1.2-0.9-2.1c0-0.2,0-0.4,0.1-0.5c0-0.5,0.3-1.1,0.7-1.6c0.4-0.5,0.9-0.8,1.4-1
			c1.2-0.4,2.8-0.5,4.7-0.2c0.1-0.3,0.1-0.5,0.1-0.8c0-0.3-0.1-0.6-0.3-0.9c-0.1-0.1-0.2-0.2-0.3-0.3c-0.1-0.1-0.3-0.2-0.4-0.2
			c-0.7-0.2-1.4-0.2-2.1-0.2c-0.1,0-0.1,0-0.2,0c0,0-0.1,0-0.1,0c-0.7,0-1.4,0.1-2.1,0.2H130c0-0.7,0.1-1.1,0.3-1.4
			c0.1-0.2,0.3-0.4,0.6-0.5c0.4-0.2,1.2-0.3,2.5-0.3c0.1,0,0.1,0,0.2,0c1.4,0,2.4,0.2,3.2,0.7c0.2,0.1,0.4,0.3,0.5,0.6
			c0.2,0.2,0.3,0.5,0.4,0.7c0.2,0.6,0.3,1.4,0.1,2.4l-0.7,6h-0.7C136.3,75.3,136.3,75.3,136.3,75.3z M131,72.4
			c0,0.8,0.5,1.2,1.6,1.2c1.1,0,1.9-0.5,2.3-1.4c0.2-0.4,0.3-0.9,0.3-1.3c-0.6-0.2-1.3-0.3-2-0.3c-1,0-1.6,0.3-2,0.8
			C131.1,71.7,131,72,131,72.4z"/>
		<path class="st0" d="M147.8,66.1c0.8,0.8,1.1,1.9,1.1,3.2c0,0.3,0,0.6-0.1,0.9l-0.6,5.1h-0.8c0,0-0.1,0-0.1,0
			c-0.4,0-0.8-0.1-1.1-0.4c-0.3-0.3-0.4-0.6-0.4-1c0,0,0-0.1,0-0.3l0.4-3.2c0-0.3,0.1-0.7,0.1-1c0-1.6-0.6-2.5-1.9-2.5
			c-0.6,0-1.1,0.2-1.5,0.5c-0.4,0.3-0.7,0.7-0.9,1.2c-0.2,0.5-0.4,1-0.4,1.6l-0.6,5.2h-0.8c0,0-0.1,0-0.1,0c-0.4,0-0.8-0.1-1.1-0.4
			c-0.3-0.3-0.4-0.6-0.4-1c0-0.1,0-0.2,0-0.3l1.1-8.6h0.8c0,0,0.1,0,0.1,0c0.3,0,0.6,0.1,0.8,0.2c0.3,0.1,0.4,0.3,0.5,0.6
			c0,0.1,0.1,0.1,0.1,0.1c0,0,0,0.1,0,0.1v0.1c0.4-0.4,1-0.7,1.7-1c0.4-0.1,0.8-0.2,1.2-0.2C146.2,64.9,147.1,65.3,147.8,66.1z"/>
	</g>
</g>
</svg>
